<svg width="368" height="708" viewBox="0 0 368 708" fill="none" xmlns="http://www.w3.org/2000/svg">
    <g clip-path="url(#clip0)" filter="url(#filter0_d)">
        <rect width="360" height="700" transform="translate(4)" fill="url(#paint0_linear)" />
        <path opacity="0.4" fill-rule="evenodd" clip-rule="evenodd"
            d="M84.9801 -223.974C122.552 -258.4 173.139 -299.039 221.588 -284.003C271.316 -268.57 273.661 -198.76 303.268 -156.228C324.789 -125.313 359.215 -105.041 371.062 -69.2764C384.156 -29.7452 394.037 16.8206 372.51 52.8127C351.272 88.3203 299.358 85.8326 264.678 108.59C224.737 134.8 202.824 194.586 155.156 195.442C107.95 196.291 74.1537 149.744 45.6896 112.526C20.6338 79.765 7.65924 40.1466 4.86819 -1.06365C2.31085 -38.8232 17.8318 -73.3311 30.6807 -109.083C45.3524 -149.907 52.8715 -194.554 84.9801 -223.974Z"
            fill="#FEB700" />
        <path opacity="0.4" fill-rule="evenodd" clip-rule="evenodd"
            d="M378.35 313.521C419.341 313.2 463.477 297.314 498.274 316.332C533.619 335.649 543.656 375.636 555.906 410.563C567.965 444.942 577.753 480.342 568.063 515.293C557.857 552.102 534.206 585.125 500.843 609.161C466.021 634.248 421.998 661.765 378.35 651.971C334.685 642.173 331.21 585.421 294.236 562.802C255.889 539.344 188.958 557.406 165.643 521.851C143.11 487.488 175.926 445.05 192.938 408.322C208.719 374.255 223.768 336.713 259.974 318.201C294.96 300.313 337.862 313.839 378.35 313.521Z"
            fill="#FE5B00" />
        <path opacity="0.2" fill-rule="evenodd" clip-rule="evenodd"
            d="M11.5007 355.475C54.3242 362.625 102.194 373.98 138.914 352.82C176.048 331.421 193.326 288.402 196.758 248.718C199.811 213.426 173.249 183.7 156.303 151.786C141.984 124.82 128.835 98.5231 105.666 77.1653C78.277 51.9173 49.96 24.7794 11.5007 18.3034C-30.8447 11.1731 -80.272 14.3019 -112.146 40.4889C-143.429 66.1897 -139.075 110.318 -146.318 147.963C-152.416 179.655 -161.985 211.438 -150.921 242.012C-139.87 272.548 -113.883 295.659 -85.7579 315.306C-56.8482 335.502 -24.4293 349.476 11.5007 355.475Z"
            fill="#FEC200" />
        <path opacity="0.35" fill-rule="evenodd" clip-rule="evenodd"
            d="M98.0417 472.449C134.065 475.017 159.604 502.457 191.437 518.241C230.233 537.479 294.257 535.44 304.743 574.942C315.482 615.396 254.453 640.7 233.77 677.712C217.992 705.946 221.099 740.795 198.623 764.849C172.135 793.196 138.563 821.856 98.0417 822.968C57.2609 824.086 23.2632 795.787 -6.97526 770.488C-34.467 747.487 -60.9412 720.075 -65.572 686.081C-69.8892 654.39 -40.3555 629.018 -30.4147 598.425C-20.1149 566.728 -31.0158 528.226 -6.45021 504.134C19.3151 478.866 60.574 469.778 98.0417 472.449Z"
            fill="#FE7600" />
    </g>
    <defs>
        <filter id="filter0_d" x="0" y="0" width="368" height="708" filterUnits="userSpaceOnUse"
            color-interpolation-filters="sRGB">
            <feFlood flood-opacity="0" result="BackgroundImageFix" />
            <feColorMatrix in="SourceAlpha" type="matrix"
                values="0 0 0 0 0 0 0 0 0 0 0 0 0 0 0 0 0 0 127 0" />
            <feOffset dy="4" />
            <feGaussianBlur stdDeviation="2" />
            <feColorMatrix type="matrix" values="0 0 0 0 0 0 0 0 0 0 0 0 0 0 0 0 0 0 0.25 0" />
            <feBlend mode="normal" in2="BackgroundImageFix" result="effect1_dropShadow" />
            <feBlend mode="normal" in="SourceGraphic" in2="effect1_dropShadow" result="shape" />
        </filter>
        <linearGradient id="paint0_linear" x1="47" y1="-3.94053e-07" x2="292" y2="700"
            gradientUnits="userSpaceOnUse">
            <stop stop-color="#FEC600" />
            <stop offset="0.335264" stop-color="#FE8A00" />
            <stop offset="0.822491" stop-color="#FE5B00" />
        </linearGradient>
        <clipPath id="clip0">
            <rect width="360" height="700" fill="white" transform="translate(4)" />
        </clipPath>
    </defs>
</svg>
